<svg width="154" height="54" viewBox="0 0 154 54" fill="none" xmlns="http://www.w3.org/2000/svg">
<g clip-path="url(#clip0_2008_117)">
<mask id="mask0_2008_117" style="mask-type:luminance" maskUnits="userSpaceOnUse" x="-54" y="1" width="206" height="52">
<path d="M151.425 1H-54V53H151.425V1Z" fill="white"/>
</mask>
<g mask="url(#mask0_2008_117)">
<path d="M22.369 7.69727L16.1378 24.4139H28.8143L22.5831 7.69727H22.369ZM5.32512 38.9057L19.7066 1.84753H25.2461L39.627 38.9057C36.3695 38.9057 33.4643 36.9134 32.3733 33.931L30.5193 28.8646H14.4864L12.6024 33.9388C11.4959 36.9196 8.58544 38.9057 5.32512 38.9057Z" fill="white"/>
<path d="M66.1527 38.9065H61.4653V35.3867H61.2512C60.5061 36.6286 59.3616 37.6635 57.816 38.4916C56.2716 39.3197 54.6644 39.7346 52.9957 39.7346C49.8004 39.7346 47.3405 38.8467 45.6194 37.0686C43.8972 35.2922 43.0364 32.7649 43.0364 29.4867V13.5461H47.9366V29.1758C48.0419 33.3168 50.19 35.3867 54.3802 35.3867C56.3337 35.3867 57.9668 34.6201 59.2816 33.0836C60.5941 31.5482 61.2512 29.712 61.2512 27.5716V13.5461H66.1527V38.9065Z" fill="white"/>
<path d="M78.3493 38.9068H73.4478V13.5464H78.1352V17.6863H78.3493C78.8458 16.3405 79.8672 15.1937 81.4116 14.2454C82.9555 13.2959 84.4734 12.8207 85.9655 12.8207C87.3845 12.8207 88.5923 13.0292 89.5878 13.4424L88.0957 18.0492C87.4915 17.8076 86.5323 17.6863 85.2203 17.6863C83.3727 17.6863 81.7655 18.4104 80.4 19.8602C79.0311 21.3101 78.3493 23.0009 78.3493 24.9322V38.9068Z" fill="white"/>
<path d="M99.4412 38.9057H94.5398V13.5454H99.4412V38.9057ZM100.453 4.79762C100.453 5.7297 100.115 6.52369 99.4412 7.17956C98.7657 7.83431 97.9492 8.16253 96.9899 8.16253C96.0319 8.16253 95.2136 7.83431 94.5398 7.17956C93.866 6.52369 93.5282 5.7297 93.5282 4.79762C93.5282 3.86665 93.866 3.07323 94.5398 2.4168C95.2136 1.76205 96.0319 1.43384 96.9899 1.43384C97.9492 1.43384 98.7657 1.76205 99.4412 2.4168C100.115 3.07323 100.453 3.86665 100.453 4.79762Z" fill="white"/>
<path d="M119.2 1.43494C120.975 1.43494 122.431 1.72848 123.567 2.31502L122.236 6.50689C121.384 6.09369 120.426 5.88569 119.361 5.88569C118.153 5.88569 117.167 6.29219 116.404 7.1018C115.64 7.91256 115.258 8.9917 115.258 10.3375V13.5464H122.077V17.8926H115.258V38.9068H110.358V17.8926H105.458V13.5464H110.358V9.87066C110.358 7.3523 111.184 5.3176 112.835 3.76375C114.487 2.21102 116.607 1.43494 119.2 1.43494Z" fill="white"/>
<path d="M151.425 13.5465L135.072 51.2527C132.553 51.2527 130.866 48.7337 131.888 46.4955L136.084 37.3021L127.47 18.2841C126.459 16.052 128.141 13.5465 130.651 13.5465L138.428 31.7633H138.533L144.105 18.3467C145.309 15.4459 148.206 13.5465 151.425 13.5465Z" fill="white"/>
</g>
<path d="M7.11754 45.4204V44.8H11.5747V45.4204H9.70577V50.5745H8.9865V45.4204H7.11754Z" fill="white"/>
<path d="M17.0556 50.5745V44.8001H20.6422V45.4204H17.7755V47.3716H20.4563V47.9919H17.7755V49.9542H20.6888V50.5745H17.0556ZM31.5729 46.6047H30.853C30.8104 46.4035 30.7362 46.2268 30.6297 46.0746C30.525 45.9223 30.3973 45.7945 30.2465 45.6911C30.0975 45.5858 29.9323 45.5069 29.7505 45.4543C29.5687 45.4017 29.3788 45.3753 29.182 45.3753C28.8218 45.3753 28.4961 45.4637 28.2038 45.6404C27.9138 45.817 27.6824 46.0774 27.5104 46.4214C27.3401 46.7653 27.2549 47.1873 27.2549 47.6874C27.2549 48.1874 27.3401 48.6093 27.5104 48.9533C27.6824 49.2973 27.9138 49.5576 28.2038 49.7343C28.4961 49.911 28.8218 49.9994 29.182 49.9994C29.3788 49.9994 29.5687 49.9731 29.7505 49.9204C29.9323 49.8678 30.0975 49.7898 30.2465 49.6864C30.3973 49.5811 30.525 49.4523 30.6297 49.3001C30.7362 49.146 30.8104 48.9693 30.853 48.77H31.5729C31.5182 49.0651 31.4198 49.3293 31.2765 49.5623C31.1338 49.7954 30.9554 49.9937 30.7425 50.1573C30.5302 50.3189 30.2908 50.442 30.0261 50.5266C29.7632 50.6112 29.4818 50.6535 29.182 50.6535C28.675 50.6535 28.2239 50.5332 27.8297 50.2926C27.435 50.052 27.1243 49.7099 26.8981 49.2663C26.672 48.8227 26.5586 48.2964 26.5586 47.6874C26.5586 47.0784 26.672 46.552 26.8981 46.1084C27.1243 45.6648 27.435 45.3227 27.8297 45.0821C28.2239 44.8415 28.675 44.7212 29.182 44.7212C29.4818 44.7212 29.7632 44.7635 30.0261 44.8481C30.2908 44.9327 30.5302 45.0567 30.7425 45.2203C30.9554 45.3819 31.1338 45.5793 31.2765 45.8124C31.4198 46.0436 31.5182 46.3077 31.5729 46.6047Z" fill="white"/>
<path d="M37.7247 50.5745V44.8H38.4439V47.3715H41.6128V44.8H42.3326V50.5745H41.6128V47.9918H38.4439V50.5745H37.7247Z" fill="white"/>
<path d="M53.2811 44.8001V50.5745H52.5848L49.3464 46.0408H49.2888V50.5745H48.569V44.8001H49.2653L52.5152 49.3452H52.5733V44.8001H53.2811ZM64.9696 47.6874C64.9696 48.2964 64.8568 48.8227 64.6301 49.2663C64.4039 49.7099 64.0932 50.052 63.6991 50.2926C63.3043 50.5332 62.8532 50.6535 62.3468 50.6535C61.8399 50.6535 61.3893 50.5332 60.9946 50.2926C60.5999 50.052 60.2891 49.7099 60.063 49.2663C59.8369 48.8227 59.7235 48.2964 59.7235 47.6874C59.7235 47.0784 59.8369 46.552 60.063 46.1084C60.2891 45.6648 60.5999 45.3227 60.9946 45.0821C61.3893 44.8415 61.8399 44.7212 62.3468 44.7212C62.8532 44.7212 63.3043 44.8415 63.6991 45.0821C64.0932 45.3227 64.4039 45.6648 64.6301 46.1084C64.8568 46.552 64.9696 47.0784 64.9696 47.6874ZM64.2733 47.6874C64.2733 47.1873 64.187 46.7653 64.015 46.4214C63.8446 46.0774 63.6139 45.817 63.3216 45.6404C63.0316 45.4637 62.7065 45.3753 62.3468 45.3753C61.9866 45.3753 61.6609 45.4637 61.3686 45.6404C61.0786 45.817 60.8473 46.0774 60.6752 46.4214C60.5049 46.7653 60.4197 47.1873 60.4197 47.6874C60.4197 48.1874 60.5049 48.6093 60.6752 48.9533C60.8473 49.2973 61.0786 49.5576 61.3686 49.7343C61.6609 49.911 61.9866 49.9994 62.3468 49.9994C62.7065 49.9994 63.0316 49.911 63.3216 49.7343C63.6139 49.5576 63.8446 49.2973 64.015 48.9533C64.187 48.6093 64.2733 48.1874 64.2733 47.6874ZM71.4143 50.5745V44.8001H72.1336V49.9542H74.8961V50.5745H71.4143ZM86.2589 47.6874C86.2589 48.2964 86.1456 48.8227 85.9194 49.2663C85.6933 49.7099 85.3826 50.052 84.9878 50.2926C84.5931 50.5332 84.1426 50.6535 83.6356 50.6535C83.1292 50.6535 82.6781 50.5332 82.2834 50.2926C81.8892 50.052 81.5785 49.7099 81.3523 49.2663C81.1256 48.8227 81.0128 48.2964 81.0128 47.6874C81.0128 47.0784 81.1256 46.552 81.3523 46.1084C81.5785 45.6648 81.8892 45.3227 82.2834 45.0821C82.6781 44.8415 83.1292 44.7212 83.6356 44.7212C84.1426 44.7212 84.5931 44.8415 84.9878 45.0821C85.3826 45.3227 85.6933 45.6648 85.9194 46.1084C86.1456 46.552 86.2589 47.0784 86.2589 47.6874ZM85.5627 47.6874C85.5627 47.1873 85.4764 46.7653 85.3043 46.4214C85.134 46.0774 84.9027 45.817 84.6109 45.6404C84.3204 45.4637 83.9958 45.3753 83.6356 45.3753C83.276 45.3753 82.9503 45.4637 82.658 45.6404C82.368 45.817 82.1366 46.0774 81.9646 46.4214C81.7943 46.7653 81.7091 47.1873 81.7091 47.6874C81.7091 48.1874 81.7943 48.6093 81.9646 48.9533C82.1366 49.2973 82.368 49.5576 82.658 49.7343C82.9503 49.911 83.276 49.9994 83.6356 49.9994C83.9958 49.9994 84.3204 49.911 84.6109 49.7343C84.9027 49.5576 85.134 49.2973 85.3043 48.9533C85.4764 48.6093 85.5627 48.1874 85.5627 47.6874ZM96.7655 46.6047C96.7017 46.4148 96.6176 46.2447 96.5129 46.0943C96.4105 45.9421 96.2879 45.8124 96.1446 45.7052C96.0037 45.5981 95.8431 45.5163 95.663 45.4599C95.4829 45.4036 95.2855 45.3753 95.0709 45.3753C94.7188 45.3753 94.3988 45.4637 94.1105 45.6404C93.8222 45.817 93.5932 46.0774 93.4229 46.4214C93.2526 46.7653 93.1674 47.1873 93.1674 47.6874C93.1674 48.1874 93.2537 48.6093 93.4258 48.9533C93.5978 49.2973 93.8309 49.5576 94.1249 49.7343C94.419 49.911 94.7498 49.9994 95.1175 49.9994C95.4582 49.9994 95.758 49.9289 96.0169 49.7879C96.2781 49.645 96.4813 49.4439 96.6263 49.1845C96.7736 48.9232 96.8467 48.6159 96.8467 48.2626L97.0676 48.3076H95.2798V47.6874H97.5435V48.3076C97.5435 48.7832 97.4387 49.1968 97.2299 49.5482C97.0227 49.8997 96.7367 50.1723 96.3708 50.3659C96.0071 50.5577 95.5894 50.6535 95.1175 50.6535C94.5916 50.6535 94.1289 50.5332 93.7308 50.2926C93.3337 50.052 93.0247 49.7099 92.802 49.2663C92.5816 48.8227 92.4712 48.2964 92.4712 47.6874C92.4712 47.2306 92.5339 46.8199 92.6599 46.4552C92.7876 46.0887 92.9672 45.7767 93.1996 45.5191C93.4315 45.2616 93.7066 45.0643 94.0236 44.9271C94.3407 44.7898 94.69 44.7212 95.0709 44.7212C95.3845 44.7212 95.6763 44.7673 95.9473 44.8594C96.22 44.9496 96.4628 45.0784 96.6758 45.2457C96.8904 45.4111 97.0693 45.6094 97.2126 45.8406C97.3553 46.0699 97.4543 46.3246 97.5084 46.6047H96.7655Z" fill="white"/>
<path d="M104.759 44.8V50.5745H104.039V44.8H104.759ZM111.054 50.5745V44.8H114.64V45.4204H111.773V47.3715H114.454V47.9918H111.773V49.9541H114.686V50.5745H111.054Z" fill="white"/>
<path d="M123.961 46.2438C123.926 45.9581 123.785 45.7363 123.537 45.5784C123.29 45.4204 122.986 45.3415 122.627 45.3415C122.364 45.3415 122.133 45.3829 121.936 45.4656C121.74 45.5483 121.587 45.662 121.477 45.8067C121.369 45.9515 121.315 46.116 121.315 46.3001C121.315 46.4543 121.353 46.5868 121.428 46.6977C121.506 46.8067 121.604 46.8979 121.724 46.9712C121.844 47.0426 121.969 47.1018 122.101 47.1488C122.233 47.1939 122.354 47.2306 122.464 47.2588L123.067 47.4167C123.222 47.4562 123.394 47.5107 123.584 47.5802C123.776 47.6497 123.958 47.7447 124.132 47.865C124.309 47.9834 124.454 48.1356 124.567 48.3218C124.682 48.5079 124.739 48.7362 124.739 49.0069C124.739 49.3189 124.655 49.6009 124.486 49.8528C124.32 50.1046 124.076 50.3048 123.755 50.4533C123.436 50.6018 123.048 50.676 122.591 50.676C122.166 50.676 121.797 50.6093 121.486 50.4759C121.177 50.3424 120.933 50.1563 120.755 49.9176C120.579 49.6789 120.479 49.4016 120.456 49.0858H121.199C121.218 49.3039 121.293 49.4843 121.425 49.6272C121.559 49.7682 121.727 49.8734 121.93 49.943C122.135 50.0107 122.356 50.0445 122.591 50.0445C122.867 50.0445 123.113 50.0013 123.331 49.9148C123.55 49.8264 123.723 49.7042 123.851 49.5482C123.979 49.3903 124.043 49.2062 124.043 48.9956C124.043 48.8039 123.987 48.6479 123.877 48.5276C123.766 48.4073 123.621 48.3095 123.442 48.2343C123.262 48.1592 123.067 48.0934 122.858 48.037L122.127 47.834C121.663 47.7043 121.296 47.5191 121.025 47.2785C120.754 47.0379 120.618 46.7231 120.618 46.334C120.618 46.0107 120.709 45.7287 120.888 45.4881C121.07 45.2457 121.314 45.0577 121.62 44.9242C121.927 44.7889 122.27 44.7212 122.65 44.7212C123.033 44.7212 123.373 44.7879 123.671 44.9214C123.969 45.053 124.205 45.2334 124.379 45.4628C124.555 45.6921 124.648 45.9524 124.658 46.2438H123.961Z" fill="white"/>
</g>
<defs>
<clipPath id="clip0_2008_117">
<rect width="154" height="54" fill="white"/>
</clipPath>
</defs>
</svg>
