<svg width="206" height="52" viewBox="0 0 206 52" fill="none" xmlns="http://www.w3.org/2000/svg">
<g clip-path="url(#clip0_9_11)">
<mask id="mask0_9_11" style="mask-type:luminance" maskUnits="userSpaceOnUse" x="0" y="0" width="206" height="52">
<path d="M205.712 0H0.28772V52H205.712V0Z" fill="white"/>
</mask>
<g mask="url(#mask0_9_11)">
<path d="M76.6568 6.69739L70.4256 23.414H83.102L76.8708 6.69739H76.6568ZM59.6129 37.9058L73.9943 0.847656H79.5339L93.9147 37.9058C90.6573 37.9058 87.752 35.9136 86.661 32.9311L84.807 27.8647H68.7741L66.8902 32.9389C65.7836 35.9197 62.8732 37.9058 59.6129 37.9058Z" fill="#203366"/>
<path d="M120.44 37.9065H115.753V34.3868H115.539C114.794 35.6286 113.649 36.6636 112.104 37.4917C110.559 38.3198 108.952 38.7346 107.283 38.7346C104.088 38.7346 101.628 37.8467 99.9072 36.0687C98.1849 34.2923 97.3241 31.765 97.3241 28.4867V12.5462H102.224V28.1758C102.33 32.3168 104.478 34.3868 108.668 34.3868C110.621 34.3868 112.254 33.6202 113.569 32.0837C114.882 30.5483 115.539 28.7121 115.539 26.5717V12.5462H120.44V37.9065Z" fill="#203366"/>
<path d="M132.637 37.9068H127.736V12.5465H132.423V16.6863H132.637C133.134 15.3405 134.155 14.1937 135.699 13.2454C137.243 12.296 138.761 11.8207 140.253 11.8207C141.672 11.8207 142.88 12.0293 143.875 12.4425L142.383 17.0492C141.779 16.8077 140.82 16.6863 139.508 16.6863C137.66 16.6863 136.053 17.4104 134.688 18.8603C133.319 20.3101 132.637 22.001 132.637 23.9322V37.9068Z" fill="#203366"/>
<path d="M153.729 37.9058H148.828V12.5454H153.729V37.9058ZM154.741 3.79768C154.741 4.72976 154.403 5.52375 153.729 6.17962C153.053 6.83437 152.237 7.16259 151.278 7.16259C150.32 7.16259 149.501 6.83437 148.828 6.17962C148.154 5.52375 147.816 4.72976 147.816 3.79768C147.816 2.86671 148.154 2.0733 148.828 1.41687C149.501 0.762113 150.32 0.433899 151.278 0.433899C152.237 0.433899 153.053 0.762113 153.729 1.41687C154.403 2.0733 154.741 2.86671 154.741 3.79768Z" fill="#203366"/>
<path d="M173.488 0.434998C175.262 0.434998 176.719 0.728544 177.855 1.31508L176.524 5.50695C175.671 5.09375 174.713 4.88575 173.648 4.88575C172.44 4.88575 171.455 5.29225 170.692 6.10186C169.928 6.91262 169.545 7.99176 169.545 9.33761V12.5465H176.365V16.8927H169.545V37.9068H164.646V16.8927H159.746V12.5465H164.646V8.87072C164.646 6.35236 165.472 4.31766 167.123 2.76381C168.774 1.21108 170.895 0.434998 173.488 0.434998Z" fill="#203366"/>
<path d="M205.712 12.5465L189.36 50.2527C186.84 50.2527 185.154 47.7338 186.176 45.4955L190.372 36.3021L181.758 17.2841C180.747 15.052 182.429 12.5465 184.939 12.5465L192.716 30.7633H192.821L198.392 17.3468C199.597 14.4459 202.493 12.5465 205.712 12.5465Z" fill="#203366"/>
</g>
<path d="M61.4053 44.4204V43.8001H65.8625V44.4204H63.9935V49.5745H63.2742V44.4204H61.4053Z" fill="#0F0F0F"/>
<path d="M71.3433 49.5745V43.8001H74.9299V44.4204H72.0632V46.3715H74.7441V46.9918H72.0632V48.9542H74.9765V49.5745H71.3433ZM85.8606 45.6046H85.1407C85.0981 45.4035 85.0239 45.2268 84.9175 45.0746C84.8127 44.9223 84.685 44.7945 84.5342 44.6911C84.3852 44.5858 84.22 44.5069 84.0382 44.4542C83.8564 44.4016 83.6665 44.3753 83.4697 44.3753C83.1095 44.3753 82.7838 44.4636 82.4915 44.6403C82.2015 44.817 81.9702 45.0774 81.7981 45.4213C81.6278 45.7653 81.5426 46.1873 81.5426 46.6873C81.5426 47.1873 81.6278 47.6093 81.7981 47.9533C81.9702 48.2973 82.2015 48.5576 82.4915 48.7343C82.7838 48.911 83.1095 48.9993 83.4697 48.9993C83.6665 48.9993 83.8564 48.973 84.0382 48.9204C84.22 48.8678 84.3852 48.7898 84.5342 48.6864C84.685 48.5811 84.8127 48.4523 84.9175 48.3001C85.0239 48.146 85.0981 47.9693 85.1407 47.77H85.8606C85.8059 48.0651 85.7075 48.3293 85.5642 48.5623C85.4215 48.7954 85.2431 48.9937 85.0302 49.1572C84.8179 49.3189 84.5785 49.442 84.3138 49.5266C84.0509 49.6112 83.7695 49.6535 83.4697 49.6535C82.9628 49.6535 82.5116 49.5332 82.1175 49.2925C81.7227 49.0519 81.412 48.7099 81.1859 48.2662C80.9597 47.8227 80.8464 47.2964 80.8464 46.6873C80.8464 46.0783 80.9597 45.552 81.1859 45.1084C81.412 44.6648 81.7227 44.3227 82.1175 44.0821C82.5116 43.8415 82.9628 43.7212 83.4697 43.7212C83.7695 43.7212 84.0509 43.7635 84.3138 43.8481C84.5785 43.9326 84.8179 44.0567 85.0302 44.2202C85.2431 44.3819 85.4215 44.5793 85.5642 44.8123C85.7075 45.0435 85.8059 45.3077 85.8606 45.6046Z" fill="#0F0F0F"/>
<path d="M92.0124 49.5745V43.8001H92.7317V46.3715H95.9005V43.8001H96.6203V49.5745H95.9005V46.9918H92.7317V49.5745H92.0124Z" fill="#0F0F0F"/>
<path d="M107.569 43.8001V49.5745H106.873L103.634 45.0407H103.577V49.5745H102.857V43.8001H103.553L106.803 48.3452H106.861V43.8001H107.569ZM119.257 46.6873C119.257 47.2964 119.144 47.8227 118.918 48.2662C118.692 48.7099 118.381 49.0519 117.987 49.2925C117.592 49.5332 117.141 49.6535 116.635 49.6535C116.128 49.6535 115.677 49.5332 115.282 49.2925C114.888 49.0519 114.577 48.7099 114.351 48.2662C114.125 47.8227 114.011 47.2964 114.011 46.6873C114.011 46.0783 114.125 45.552 114.351 45.1084C114.577 44.6648 114.888 44.3227 115.282 44.0821C115.677 43.8415 116.128 43.7212 116.635 43.7212C117.141 43.7212 117.592 43.8415 117.987 44.0821C118.381 44.3227 118.692 44.6648 118.918 45.1084C119.144 45.552 119.257 46.0783 119.257 46.6873ZM118.561 46.6873C118.561 46.1873 118.475 45.7653 118.303 45.4213C118.132 45.0774 117.902 44.817 117.609 44.6403C117.319 44.4636 116.994 44.3753 116.635 44.3753C116.274 44.3753 115.949 44.4636 115.656 44.6403C115.366 44.817 115.135 45.0774 114.963 45.4213C114.793 45.7653 114.707 46.1873 114.707 46.6873C114.707 47.1873 114.793 47.6093 114.963 47.9533C115.135 48.2973 115.366 48.5576 115.656 48.7343C115.949 48.911 116.274 48.9993 116.635 48.9993C116.994 48.9993 117.319 48.911 117.609 48.7343C117.902 48.5576 118.132 48.2973 118.303 47.9533C118.475 47.6093 118.561 47.1873 118.561 46.6873ZM125.702 49.5745V43.8001H126.421V48.9542H129.184V49.5745H125.702ZM140.547 46.6873C140.547 47.2964 140.433 47.8227 140.207 48.2662C139.981 48.7099 139.67 49.0519 139.276 49.2925C138.881 49.5332 138.43 49.6535 137.923 49.6535C137.417 49.6535 136.966 49.5332 136.571 49.2925C136.177 49.0519 135.866 48.7099 135.64 48.2662C135.413 47.8227 135.301 47.2964 135.301 46.6873C135.301 46.0783 135.413 45.552 135.64 45.1084C135.866 44.6648 136.177 44.3227 136.571 44.0821C136.966 43.8415 137.417 43.7212 137.923 43.7212C138.43 43.7212 138.881 43.8415 139.276 44.0821C139.67 44.3227 139.981 44.6648 140.207 45.1084C140.433 45.552 140.547 46.0783 140.547 46.6873ZM139.85 46.6873C139.85 46.1873 139.764 45.7653 139.592 45.4213C139.422 45.0774 139.19 44.817 138.899 44.6403C138.608 44.4636 138.284 44.3753 137.923 44.3753C137.564 44.3753 137.238 44.4636 136.946 44.6403C136.656 44.817 136.424 45.0774 136.252 45.4213C136.082 45.7653 135.997 46.1873 135.997 46.6873C135.997 47.1873 136.082 47.6093 136.252 47.9533C136.424 48.2973 136.656 48.5576 136.946 48.7343C137.238 48.911 137.564 48.9993 137.923 48.9993C138.284 48.9993 138.608 48.911 138.899 48.7343C139.19 48.5576 139.422 48.2973 139.592 47.9533C139.764 47.6093 139.85 47.1873 139.85 46.6873ZM151.053 45.6046C150.989 45.4148 150.905 45.2446 150.801 45.0943C150.698 44.942 150.576 44.8123 150.432 44.7052C150.291 44.5981 150.131 44.5163 149.951 44.4599C149.771 44.4035 149.573 44.3753 149.359 44.3753C149.006 44.3753 148.687 44.4636 148.398 44.6403C148.11 44.817 147.881 45.0774 147.711 45.4213C147.54 45.7653 147.455 46.1873 147.455 46.6873C147.455 47.1873 147.541 47.6093 147.713 47.9533C147.886 48.2973 148.119 48.5576 148.413 48.7343C148.707 48.911 149.038 48.9993 149.405 48.9993C149.746 48.9993 150.046 48.9289 150.305 48.7879C150.566 48.645 150.769 48.4439 150.914 48.1845C151.061 47.9232 151.134 47.6159 151.134 47.2625L151.355 47.3076H149.567V46.6873H151.831V47.3076C151.831 47.7832 151.726 48.1967 151.518 48.5482C151.31 48.8997 151.024 49.1723 150.658 49.3659C150.295 49.5576 149.877 49.6535 149.405 49.6535C148.879 49.6535 148.417 49.5332 148.018 49.2925C147.621 49.0519 147.312 48.7099 147.09 48.2662C146.869 47.8227 146.759 47.2964 146.759 46.6873C146.759 46.2306 146.822 45.8198 146.948 45.4552C147.075 45.0886 147.255 44.7766 147.487 44.5191C147.719 44.2616 147.994 44.0642 148.311 43.927C148.628 43.7898 148.978 43.7212 149.359 43.7212C149.672 43.7212 149.964 43.7672 150.235 43.8593C150.508 43.9496 150.751 44.0783 150.963 44.2456C151.178 44.411 151.357 44.6094 151.5 44.8406C151.643 45.0699 151.742 45.3246 151.796 45.6046H151.053Z" fill="#0F0F0F"/>
<path d="M159.047 43.8001V49.5745H158.327V43.8001H159.047ZM165.342 49.5745V43.8001H168.928V44.4204H166.061V46.3715H168.742V46.9918H166.061V48.9542H168.974V49.5745H165.342Z" fill="#0F0F0F"/>
<path d="M178.249 45.2438C178.214 44.958 178.073 44.7362 177.825 44.5783C177.578 44.4204 177.274 44.3415 176.914 44.3415C176.651 44.3415 176.421 44.3828 176.224 44.4655C176.028 44.5482 175.875 44.662 175.765 44.8067C175.657 44.9514 175.602 45.1159 175.602 45.3001C175.602 45.4543 175.64 45.5868 175.716 45.6977C175.793 45.8067 175.892 45.8978 176.011 45.9711C176.132 46.0426 176.257 46.1018 176.389 46.1488C176.521 46.1939 176.642 46.2306 176.751 46.2588L177.355 46.4167C177.51 46.4561 177.682 46.5107 177.872 46.5802C178.063 46.6497 178.246 46.7447 178.42 46.865C178.596 46.9833 178.741 47.1356 178.855 47.3217C178.97 47.5078 179.027 47.7362 179.027 48.0069C179.027 48.3189 178.943 48.6008 178.774 48.8527C178.608 49.1046 178.364 49.3048 178.043 49.4533C177.724 49.6018 177.336 49.676 176.879 49.676C176.454 49.676 176.085 49.6093 175.774 49.4758C175.464 49.3424 175.221 49.1563 175.042 48.9176C174.866 48.6788 174.767 48.4016 174.744 48.0858H175.487C175.506 48.3039 175.581 48.4843 175.713 48.6272C175.846 48.7681 176.015 48.8734 176.217 48.943C176.423 49.0106 176.643 49.0445 176.879 49.0445C177.154 49.0445 177.4 49.0012 177.619 48.9147C177.838 48.8264 178.011 48.7042 178.139 48.5482C178.266 48.3903 178.33 48.2061 178.33 47.9956C178.33 47.8038 178.275 47.6478 178.165 47.5276C178.054 47.4072 177.909 47.3095 177.73 47.2343C177.55 47.1591 177.355 47.0933 177.146 47.037L176.415 46.8339C175.951 46.7042 175.583 46.5191 175.312 46.2785C175.042 46.0379 174.906 45.723 174.906 45.3339C174.906 45.0106 174.996 44.7287 175.176 44.4881C175.358 44.2456 175.602 44.0577 175.907 43.9242C176.215 43.7889 176.558 43.7212 176.937 43.7212C177.321 43.7212 177.661 43.7879 177.959 43.9214C178.257 44.053 178.493 44.2334 178.666 44.4627C178.842 44.692 178.936 44.9524 178.945 45.2438H178.249Z" fill="#0F0F0F"/>
<mask id="mask1_9_11" style="mask-type:luminance" maskUnits="userSpaceOnUse" x="9" y="0" width="23" height="15">
<path d="M9.552 5.5914L24.8581 14.1462C26.5269 11.686 28.8861 9.72903 31.533 8.27527L18.1257 0.78279C17.2051 0.223653 16.2269 0 15.2487 0C12.314 0 9.552 2.34839 9.552 5.5914Z" fill="white"/>
</mask>
<g mask="url(#mask1_9_11)">
<path d="M-69.7408 -109.591V361.143H272.792L272.793 -109.591L-69.7408 -109.591Z" fill="url(#paint0_linear_9_11)"/>
</g>
<mask id="mask2_9_11" style="mask-type:luminance" maskUnits="userSpaceOnUse" x="25" y="9" width="22" height="33">
<path d="M25.8939 14.7051L44.3073 25.0492L40.3369 27.2858C40.3369 27.2858 33.4894 31.3675 26.2967 35.617C28.0229 37.9654 30.3821 39.8105 33.0866 41.0406L45.2855 34.1632C46.2637 31.4234 46.7816 28.46 46.7816 25.3288C46.7816 22.0299 46.1486 18.7869 45.0553 15.8793L32.7989 9.00192C30.0369 10.2879 27.6777 12.3008 25.8939 14.7051Z" fill="white"/>
</mask>
<g mask="url(#mask2_9_11)">
<path d="M-69.7408 361.143H272.792V-109.591H-69.7408V361.143Z" fill="url(#paint1_linear_9_11)"/>
</g>
<mask id="mask3_9_11" style="mask-type:luminance" maskUnits="userSpaceOnUse" x="0" y="10" width="23" height="30">
<path d="M0 14.7615L18.4134 25.0497L14.443 27.2862C14.443 27.2862 7.59553 31.368 0.402796 35.6174L0.460337 35.6733C3.27989 39.3637 8.57374 40.3142 12.6592 38.0217L22.8441 32.2626C21.9235 30.026 21.4056 27.6776 21.4056 25.1056C21.4056 22.5895 21.9235 20.1293 22.8441 17.9486L12.429 12.0776C10.933 11.2389 9.32179 10.8475 7.71061 10.8475C4.77598 10.8475 1.84134 12.2454 0 14.7615Z" fill="white"/>
</mask>
<g mask="url(#mask3_9_11)">
<path d="M-69.7408 -109.591L-69.7413 361.143H272.792V-109.591L-69.7408 -109.591Z" fill="url(#paint2_linear_9_11)"/>
</g>
<mask id="mask4_9_11" style="mask-type:luminance" maskUnits="userSpaceOnUse" x="9" y="36" width="23" height="15">
<path d="M9.66693 45.5144C9.66693 49.3725 14.0401 51.8327 17.4926 49.8757L31.8206 41.7682C29.2312 40.4822 26.9295 38.5811 25.2608 36.2327C17.8954 40.594 10.4725 45.0112 9.66693 45.5144Z" fill="white"/>
</mask>
<g mask="url(#mask4_9_11)">
<path d="M-69.7408 -109.591L-69.7413 361.143H272.792V-109.591L-69.7408 -109.591Z" fill="url(#paint3_linear_9_11)"/>
</g>
</g>
<defs>
<linearGradient id="paint0_linear_9_11" x1="20.535" y1="0.0094113" x2="20.535" y2="14.1361" gradientUnits="userSpaceOnUse">
<stop stop-color="#306EBB"/>
<stop offset="0.205952" stop-color="#3070BC"/>
<stop offset="0.571429" stop-color="#3A96D2"/>
<stop offset="0.792857" stop-color="#42BCE9"/>
<stop offset="1" stop-color="#53CABB"/>
</linearGradient>
<linearGradient id="paint1_linear_9_11" x1="25.9109" y1="25.024" x2="46.8055" y2="25.024" gradientUnits="userSpaceOnUse">
<stop stop-color="#306EBB"/>
<stop offset="0.205952" stop-color="#3070BC"/>
<stop offset="0.571429" stop-color="#3A96D2"/>
<stop offset="0.792857" stop-color="#42BCE9"/>
<stop offset="1" stop-color="#53CABB"/>
</linearGradient>
<linearGradient id="paint2_linear_9_11" x1="11.4468" y1="10.8523" x2="11.4468" y2="39.2584" gradientUnits="userSpaceOnUse">
<stop stop-color="#306EBB"/>
<stop offset="0.205952" stop-color="#3070BC"/>
<stop offset="0.571429" stop-color="#3A96D2"/>
<stop offset="0.792857" stop-color="#42BCE9"/>
<stop offset="1" stop-color="#53CABB"/>
</linearGradient>
<linearGradient id="paint3_linear_9_11" x1="20.7626" y1="36.2506" x2="20.7626" y2="50.5569" gradientUnits="userSpaceOnUse">
<stop stop-color="#306EBB"/>
<stop offset="0.205952" stop-color="#3070BC"/>
<stop offset="0.571429" stop-color="#3A96D2"/>
<stop offset="0.792857" stop-color="#42BCE9"/>
<stop offset="1" stop-color="#53CABB"/>
</linearGradient>
<clipPath id="clip0_9_11">
<rect width="206" height="52" fill="white"/>
</clipPath>
</defs>
</svg>
