<svg width="47" height="51" viewBox="0 0 47 51" fill="none" xmlns="http://www.w3.org/2000/svg">
<mask id="mask0_2007_62" style="mask-type:luminance" maskUnits="userSpaceOnUse" x="9" y="0" width="23" height="15">
<path d="M9.55202 5.5914L24.8582 14.1462C26.5269 11.686 28.8861 9.72903 31.533 8.27527L18.1258 0.78279C17.2051 0.223653 16.2269 0 15.2487 0C12.314 0 9.55202 2.34839 9.55202 5.5914Z" fill="white"/>
</mask>
<g mask="url(#mask0_2007_62)">
<path d="M-69.7408 -109.591V361.143H272.792L272.793 -109.591L-69.7408 -109.591Z" fill="url(#paint0_linear_2007_62)"/>
</g>
<mask id="mask1_2007_62" style="mask-type:luminance" maskUnits="userSpaceOnUse" x="25" y="9" width="22" height="33">
<path d="M25.8939 14.7052L44.3073 25.0493L40.3369 27.2858C40.3369 27.2858 33.4894 31.3675 26.2967 35.617C28.0229 37.9654 30.3821 39.8106 33.0866 41.0407L45.2855 34.1632C46.2637 31.4235 46.7816 28.46 46.7816 25.3288C46.7816 22.0299 46.1486 18.7869 45.0553 15.8794L32.7989 9.00195C30.0369 10.288 27.6777 12.3009 25.8939 14.7052Z" fill="white"/>
</mask>
<g mask="url(#mask1_2007_62)">
<path d="M-69.7408 361.143H272.792V-109.591H-69.7408V361.143Z" fill="url(#paint1_linear_2007_62)"/>
</g>
<mask id="mask2_2007_62" style="mask-type:luminance" maskUnits="userSpaceOnUse" x="0" y="10" width="23" height="30">
<path d="M0 14.7615L18.4134 25.0497L14.443 27.2862C14.443 27.2862 7.59553 31.368 0.402796 35.6174L0.460337 35.6733C3.27989 39.3637 8.57374 40.3142 12.6592 38.0217L22.8441 32.2626C21.9235 30.026 21.4056 27.6776 21.4056 25.1056C21.4056 22.5895 21.9235 20.1293 22.8441 17.9486L12.429 12.0776C10.933 11.2389 9.32179 10.8475 7.71061 10.8475C4.77598 10.8475 1.84134 12.2454 0 14.7615Z" fill="white"/>
</mask>
<g mask="url(#mask2_2007_62)">
<path d="M-69.7408 -109.591L-69.7414 361.143H272.792V-109.591L-69.7408 -109.591Z" fill="url(#paint2_linear_2007_62)"/>
</g>
<mask id="mask3_2007_62" style="mask-type:luminance" maskUnits="userSpaceOnUse" x="9" y="36" width="23" height="15">
<path d="M9.66693 45.5144C9.66693 49.3725 14.0401 51.8327 17.4926 49.8757L31.8206 41.7682C29.2312 40.4821 26.9295 38.5811 25.2608 36.2327C17.8954 40.594 10.4725 45.0112 9.66693 45.5144Z" fill="white"/>
</mask>
<g mask="url(#mask3_2007_62)">
<path d="M-69.7408 -109.591L-69.7413 361.143H272.792V-109.591L-69.7408 -109.591Z" fill="url(#paint3_linear_2007_62)"/>
</g>
<defs>
<linearGradient id="paint0_linear_2007_62" x1="20.535" y1="0.00938079" x2="20.535" y2="14.1361" gradientUnits="userSpaceOnUse">
<stop stop-color="#306EBB"/>
<stop offset="0.205952" stop-color="#3070BC"/>
<stop offset="0.571429" stop-color="#3A96D2"/>
<stop offset="0.792857" stop-color="#42BCE9"/>
<stop offset="1" stop-color="#53CABB"/>
</linearGradient>
<linearGradient id="paint1_linear_2007_62" x1="25.9109" y1="25.024" x2="46.8055" y2="25.024" gradientUnits="userSpaceOnUse">
<stop stop-color="#306EBB"/>
<stop offset="0.205952" stop-color="#3070BC"/>
<stop offset="0.571429" stop-color="#3A96D2"/>
<stop offset="0.792857" stop-color="#42BCE9"/>
<stop offset="1" stop-color="#53CABB"/>
</linearGradient>
<linearGradient id="paint2_linear_2007_62" x1="11.4468" y1="10.8523" x2="11.4468" y2="39.2583" gradientUnits="userSpaceOnUse">
<stop stop-color="#306EBB"/>
<stop offset="0.205952" stop-color="#3070BC"/>
<stop offset="0.571429" stop-color="#3A96D2"/>
<stop offset="0.792857" stop-color="#42BCE9"/>
<stop offset="1" stop-color="#53CABB"/>
</linearGradient>
<linearGradient id="paint3_linear_2007_62" x1="20.7626" y1="36.2506" x2="20.7626" y2="50.5569" gradientUnits="userSpaceOnUse">
<stop stop-color="#306EBB"/>
<stop offset="0.205952" stop-color="#3070BC"/>
<stop offset="0.571429" stop-color="#3A96D2"/>
<stop offset="0.792857" stop-color="#42BCE9"/>
<stop offset="1" stop-color="#53CABB"/>
</linearGradient>
</defs>
</svg>
