<svg width="59" height="59" viewBox="0 0 59 59" fill="none" xmlns="http://www.w3.org/2000/svg">
<rect width="59" height="59" rx="29.5" fill="black"/>
<mask id="mask0_2004_173" style="mask-type:luminance" maskUnits="userSpaceOnUse" x="16" y="7" width="21" height="13">
<path d="M16.5757 12.0199L30.3174 19.7003C31.8155 17.4916 33.9336 15.7346 36.31 14.4294L24.2731 7.70278C23.4465 7.20079 22.5683 7 21.6901 7C19.0554 7 16.5757 9.10836 16.5757 12.0199Z" fill="white"/>
</mask>
<g mask="url(#mask0_2004_173)">
<path d="M-54.6125 -91.39V331.231H252.91L252.911 -91.3894L-54.6125 -91.39Z" fill="white"/>
</g>
<mask id="mask1_2004_173" style="mask-type:luminance" maskUnits="userSpaceOnUse" x="31" y="15" width="19" height="29">
<path d="M31.2472 20.2022L47.7786 29.489L44.214 31.497C44.214 31.497 38.0664 35.1615 31.6089 38.9766C33.1587 41.085 35.2768 42.7416 37.7048 43.8459L48.6568 37.6715C49.5351 35.2117 50 32.5512 50 29.74C50 26.7783 49.4317 23.8667 48.4502 21.2564L37.4465 15.0819C34.9668 16.2365 32.8487 18.0436 31.2472 20.2022Z" fill="white"/>
</mask>
<g mask="url(#mask1_2004_173)">
<path d="M-54.6126 331.231H252.91V-91.3895H-54.6126V331.231Z" fill="white"/>
</g>
<mask id="mask2_2004_173" style="mask-type:luminance" maskUnits="userSpaceOnUse" x="8" y="16" width="21" height="27">
<path d="M8 20.2528L24.5314 29.4894L20.9668 31.4974C20.9668 31.4974 14.8192 35.1619 8.36163 38.977L8.41329 39.0272C10.9446 42.3404 15.6974 43.1938 19.3653 41.1356L28.5092 35.9651C27.6827 33.9571 27.2177 31.8488 27.2177 29.5396C27.2177 27.2807 27.6827 25.0719 28.5092 23.1142L19.1587 17.8433C17.8155 17.0903 16.369 16.7389 14.9225 16.7389C12.2878 16.7389 9.65314 17.9939 8 20.2528Z" fill="white"/>
</mask>
<g mask="url(#mask2_2004_173)">
<path d="M-54.6126 -91.39L-54.6131 331.231H252.91V-91.3894L-54.6126 -91.39Z" fill="white"/>
</g>
<mask id="mask3_2004_173" style="mask-type:luminance" maskUnits="userSpaceOnUse" x="16" y="39" width="21" height="14">
<path d="M16.6789 47.8625C16.6789 51.3262 20.6051 53.5349 23.7047 51.778L36.5682 44.4991C34.2434 43.3445 32.177 41.6378 30.6789 39.5294C24.0663 43.4449 17.4021 47.4107 16.6789 47.8625Z" fill="white"/>
</mask>
<g mask="url(#mask3_2004_173)">
<path d="M-54.6125 -91.39L-54.6131 331.231H252.91V-91.3895L-54.6125 -91.39Z" fill="white"/>
</g>
</svg>
